<svg aria-hidden="true" style="position: absolute; width: 0; height: 0; overflow: hidden;" version="1.1" xmlns="http://www.w3.org/2000/svg" xmlns:xlink="http://www.w3.org/1999/xlink">
<defs>
<symbol id="icon-Logo" viewBox="0 0 272 32">
<path d="M270.78 14.36h-7.22c-0.040-0.44-0.2-0.82-0.46-1.14-0.28-0.32-0.64-0.58-1.080-0.74-0.42-0.18-0.9-0.28-1.42-0.28-0.66 0-1.24 0.12-1.72 0.38-0.5 0.24-0.72 0.6-0.72 1.040 0 0.32 0.12 0.62 0.42 0.9 0.28 0.28 0.86 0.48 1.68 0.64l4.44 0.8c2.24 0.4 3.9 1.080 4.98 2.060 1.1 0.96 1.66 2.24 1.66 3.84 0 1.56-0.46 2.9-1.38 4.060-0.92 1.12-2.16 2.020-3.74 2.64s-3.38 0.92-5.38 0.92c-3.34 0-5.94-0.68-7.84-2.040-1.86-1.38-2.92-3.16-3.14-5.4h7.8c0.1 0.68 0.44 1.22 1.020 1.6 0.58 0.36 1.32 0.56 2.2 0.56 0.72 0 1.32-0.12 1.78-0.38 0.48-0.24 0.72-0.6 0.72-1.040 0-0.42-0.2-0.76-0.62-1-0.4-0.24-1.020-0.44-1.88-0.6l-3.86-0.68c-2.22-0.38-3.88-1.12-5-2.22-1.1-1.080-1.66-2.48-1.64-4.2-0.020-1.52 0.38-2.8 1.2-3.84 0.8-1.060 1.96-1.88 3.48-2.42 1.5-0.56 3.3-0.84 5.38-0.84 3.14 0 5.64 0.66 7.46 1.96s2.78 3.12 2.88 5.42z"></path>
<path d="M232.82 23.92l4.1-5.24h2.2l8.88-11.42h-8.82l-5.28 7.34h-1.020l-0.060 9.32zM225.78 29.080v-29.080h7.84v29.080h-7.84zM239.24 29.080l-5-8.64 5.12-5.56 8.86 14.2h-8.98z"></path>
<path d="M211.22 29.48c-2.36 0-4.38-0.48-6.080-1.4-1.68-0.96-2.96-2.28-3.86-3.96-0.9-1.7-1.36-3.66-1.36-5.9 0-2.22 0.46-4.18 1.36-5.88 0.9-1.68 2.18-3 3.86-3.94 1.7-0.94 3.72-1.42 6.080-1.42 2.14 0 4 0.38 5.56 1.16 1.58 0.78 2.8 1.86 3.66 3.28 0.86 1.4 1.3 3.040 1.3 4.94h-7.28c-0.1-1.16-0.42-2.020-0.98-2.62s-1.26-0.9-2.14-0.9c-0.68 0-1.28 0.18-1.78 0.58-0.52 0.4-0.92 0.98-1.2 1.78-0.28 0.78-0.42 1.78-0.42 2.98 0 1.18 0.14 2.18 0.42 2.98 0.28 0.78 0.68 1.38 1.2 1.78 0.5 0.38 1.1 0.58 1.78 0.58 0.58 0 1.1-0.14 1.54-0.4 0.44-0.28 0.8-0.68 1.080-1.2s0.44-1.18 0.5-1.92h7.28c-0.020 1.92-0.46 3.58-1.32 5.020-0.86 1.42-2.060 2.52-3.62 3.3s-3.42 1.16-5.58 1.16z"></path>
<path d="M188.080 19.54v-12.28h7.84v21.82h-7.44v-4.14h-0.22c-0.48 1.38-1.3 2.48-2.48 3.26-1.2 0.78-2.6 1.16-4.22 1.16-1.54 0-2.86-0.34-4.020-1.040-1.12-0.7-2.020-1.68-2.64-2.9-0.64-1.24-0.96-2.64-0.96-4.24v-13.92h7.84v12.28c0 1.080 0.28 1.92 0.82 2.54 0.56 0.62 1.32 0.92 2.3 0.92 0.66 0 1.22-0.14 1.7-0.42s0.84-0.68 1.1-1.18c0.26-0.52 0.4-1.14 0.38-1.86z"></path>
<path d="M155.8 29.080v-21.82h7.6v4.16h0.24c0.4-1.54 1.020-2.66 1.88-3.38 0.88-0.7 1.9-1.060 3.060-1.060 0.34 0 0.68 0.020 1 0.080 0.34 0.060 0.68 0.12 0.98 0.22v6.68c-0.38-0.12-0.86-0.22-1.42-0.3-0.58-0.060-1.060-0.1-1.46-0.1-0.78 0-1.46 0.18-2.080 0.54-0.6 0.34-1.080 0.82-1.44 1.44-0.34 0.62-0.52 1.34-0.52 2.18v11.36h-7.84z"></path>
<path d="M128.9 6.36v-6.36h25.28v6.36h-8.76v22.72h-7.78v-22.72h-8.74z"></path>
<path d="M125 0v29.080h-7.84v-29.080h7.84z"></path>
<path d="M102.48 29.48c-2.32 0-4.34-0.44-6.020-1.34s-2.96-2.18-3.88-3.86c-0.9-1.68-1.34-3.7-1.34-6.060 0-2.24 0.44-4.22 1.36-5.9 0.9-1.68 2.18-3 3.84-3.94s3.62-1.4 5.88-1.4c1.64 0 3.14 0.26 4.46 0.76 1.34 0.52 2.48 1.26 3.44 2.24 0.94 0.96 1.66 2.14 2.18 3.52 0.5 1.38 0.76 2.94 0.76 4.68v1.82h-19.48v-4.32h12.26c0-0.64-0.16-1.18-0.48-1.66-0.3-0.48-0.7-0.86-1.22-1.12-0.52-0.28-1.1-0.4-1.76-0.4-0.64 0-1.22 0.12-1.74 0.4-0.54 0.26-0.96 0.64-1.28 1.1-0.32 0.48-0.48 1.040-0.5 1.68v4.66c0 0.7 0.14 1.32 0.44 1.86 0.3 0.56 0.72 0.98 1.26 1.3 0.56 0.32 1.22 0.46 2 0.46 0.54 0 1.020-0.060 1.48-0.22 0.44-0.16 0.84-0.36 1.16-0.66 0.32-0.28 0.56-0.64 0.7-1.040h7.16c-0.24 1.52-0.82 2.82-1.74 3.94s-2.14 1.98-3.66 2.58c-1.5 0.62-3.26 0.92-5.28 0.92z"></path>
<path d="M89.66 7.26l-7.32 21.82h-9.1l-7.32-21.82h8.24l3.52 14.44h0.22l3.52-14.44h8.24z"></path>
<path d="M50.1 29.42c-1.4 0-2.62-0.22-3.7-0.68-1.060-0.46-1.88-1.16-2.5-2.1-0.6-0.94-0.9-2.14-0.9-3.58 0-1.2 0.2-2.22 0.62-3.060 0.4-0.84 0.96-1.54 1.7-2.080 0.72-0.54 1.58-0.96 2.54-1.24 0.98-0.28 2.020-0.46 3.16-0.56 1.22-0.080 2.2-0.2 2.94-0.34s1.28-0.34 1.62-0.58c0.32-0.26 0.48-0.58 0.48-1v-0.060c0-0.58-0.2-1-0.64-1.3-0.44-0.32-1-0.46-1.68-0.46-0.74 0-1.36 0.16-1.84 0.5-0.46 0.32-0.74 0.82-0.84 1.48h-7.2c0.080-1.32 0.5-2.54 1.26-3.66s1.86-2.020 3.3-2.7c1.46-0.68 3.26-1.020 5.44-1.020 1.56 0 2.96 0.18 4.2 0.56 1.24 0.36 2.3 0.86 3.16 1.52 0.88 0.64 1.54 1.4 2 2.26s0.68 1.8 0.68 2.82v14.94h-7.32v-3.060h-0.18c-0.42 0.8-0.96 1.46-1.58 1.96s-1.32 0.88-2.12 1.1c-0.78 0.22-1.66 0.34-2.6 0.34zM52.66 24.48c0.6 0 1.16-0.12 1.68-0.38 0.52-0.24 0.96-0.6 1.28-1.060 0.34-0.46 0.5-1.020 0.5-1.68v-1.82c-0.2 0.080-0.42 0.16-0.66 0.24-0.22 0.080-0.48 0.14-0.74 0.22-0.26 0.060-0.54 0.12-0.82 0.18s-0.58 0.1-0.9 0.16c-0.6 0.080-1.1 0.24-1.5 0.46-0.38 0.2-0.66 0.46-0.84 0.78-0.18 0.3-0.28 0.64-0.28 1.020 0 0.6 0.22 1.080 0.64 1.4 0.44 0.32 0.98 0.48 1.64 0.48z"></path>
<path d="M26.9 29.080v-21.82h7.6v4.16h0.24c0.4-1.54 1.020-2.66 1.88-3.38 0.88-0.7 1.9-1.060 3.060-1.060 0.34 0 0.68 0.020 1 0.080 0.34 0.060 0.68 0.12 0.98 0.22v6.68c-0.38-0.12-0.86-0.22-1.42-0.3-0.58-0.060-1.060-0.1-1.48-0.1-0.76 0-1.44 0.18-2.060 0.54-0.62 0.34-1.080 0.82-1.44 1.44s-0.52 1.34-0.52 2.18v11.36h-7.84z"></path>
<path d="M0 6.36v-6.36h25.28v6.36h-8.76v22.72h-7.78v-22.72h-8.74z"></path>
</symbol>
</defs>
</svg>
